<?xml version="1.0" encoding="UTF-8" standalone="no"?>
<svg width="46px" height="46px" viewBox="0 0 46 46" version="1.1" xmlns="http://www.w3.org/2000/svg" xmlns:xlink="http://www.w3.org/1999/xlink">
    <!-- Generator: Sketch 3.6.1 (26313) - http://www.bohemiancoding.com/sketch -->
    <title>cart</title>
    <desc>Created with Sketch.</desc>
    <defs></defs>
    <g id="Page-1" stroke="none" stroke-width="1" fill="none" fill-rule="evenodd">
        <g id="cart" stroke="#4A4A4A" fill="#4A4A4A">
            <path d="M9.1902834,31.4008097 L9.1902834,29.0607287 L6.85020243,29.0607287 L6.85020243,32.5708502 L6.85020243,33.7408907 L37.2712551,33.7408907 L37.2712551,31.4008097 L9.1902834,31.4008097 Z M9.1902834,9.17004049 L9.1902834,8 L1,8 L1,10.340081 L6.85020243,10.340081 L6.85020243,11.5101215 L9.1902834,11.5101215 L9.1902834,9.17004049 Z M6.85020243,11.5101215 L45.4615385,11.5101215 L37.1011232,29.0607287 L6.85020243,29.0607287 L6.85020243,11.5101215 Z M9.1902834,38.4210526 C10.4826744,38.4210526 11.5303644,37.3733627 11.5303644,36.0809717 C11.5303644,34.7885806 10.4826744,33.7408907 9.1902834,33.7408907 C7.89789237,33.7408907 6.85020243,34.7885806 6.85020243,36.0809717 C6.85020243,37.3733627 7.89789237,38.4210526 9.1902834,38.4210526 Z M34.9311741,38.4210526 C36.2235651,38.4210526 37.2712551,37.3733627 37.2712551,36.0809717 C37.2712551,34.7885806 36.2235651,33.7408907 34.9311741,33.7408907 C33.6387831,33.7408907 32.5910931,34.7885806 32.5910931,36.0809717 C32.5910931,37.3733627 33.6387831,38.4210526 34.9311741,38.4210526 Z" id="Combined-Shape"></path>
        </g>
    </g>
</svg>